<svg xmlns="http://www.w3.org/2000/svg" xmlns:xlink="http://www.w3.org/1999/xlink" width="81" height="61" viewBox="0 0 81 61">
  <defs>
    <clipPath id="clip-path">
      <rect id="Rectángulo_1" data-name="Rectángulo 1" width="81" height="61" transform="translate(133 150)" fill="#fff" stroke="#707070" stroke-width="1" opacity="0.5"/>
    </clipPath>
  </defs>
  <g id="Enmascarar_grupo_1" data-name="Enmascarar grupo 1" transform="translate(-133 -150)" clip-path="url(#clip-path)">
    <path id="github" d="M30.5,0A30.619,30.619,0,0,0,0,30.5C0,44.8,10.031,57.781,23.352,61V50.909a7.344,7.344,0,0,1-8.232-3.662c-.693-1.169-1.921-2.437-3.2-2.344l-.314-3.56c2.77-.237,5.167,1.688,6.59,4.078a3.952,3.952,0,0,0,2.293,1.962,4.8,4.8,0,0,0,3-.261c.283-2.26,1.319-3.106,2.1-4.3v0c-7.944-1.185-11.11-5.4-12.367-8.726a14,14,0,0,1,2.173-13.422.479.479,0,0,0,.121-.37,11.7,11.7,0,0,1,.356-7.81c1.558.461,1.811-.464,6.768,2.548l.857.515c.358.214.246.092.6.065a25.884,25.884,0,0,1,6.4-.9,26,26,0,0,1,6.489.923l.277.028c-.024,0,.075-.018.242-.117,6.192-3.751,5.97-2.525,7.63-3.065a11.9,11.9,0,0,1,.348,7.813c-.18.555,5.368,5.635,2.293,13.791-1.257,3.328-4.422,7.543-12.366,8.728v0c1.018,1.552,2.242,2.378,2.235,5.58V61C50.969,57.781,61,44.8,61,30.5A30.618,30.618,0,0,0,30.5,0Zm0,0" transform="translate(143 150)" fill="#fff"/>
  </g>
</svg>
