<svg xmlns="http://www.w3.org/2000/svg" xmlns:xlink="http://www.w3.org/1999/xlink" width="50" height="50" viewBox="0 0 50 50">
  <defs>
    <clipPath id="clip-path">
      <rect id="Rectángulo_5" data-name="Rectángulo 5" width="50" height="50" transform="translate(454 143)" fill="#fff" stroke="#707070" stroke-width="1"/>
    </clipPath>
  </defs>
  <g id="Enmascarar_grupo_5" data-name="Enmascarar grupo 5" transform="translate(-454 -143)" clip-path="url(#clip-path)">
    <g id="_005-settings" data-name="005-settings" transform="translate(454 143)">
      <g id="Grupo_3" data-name="Grupo 3">
        <g id="Grupo_2" data-name="Grupo 2">
          <path id="Trazado_8" data-name="Trazado 8" d="M25,17.676a5.859,5.859,0,1,0,5.859,5.859A5.865,5.865,0,0,0,25,17.676Z" fill="#fff"/>
        </g>
      </g>
      <g id="Grupo_5" data-name="Grupo 5">
        <g id="Grupo_4" data-name="Grupo 4">
          <path id="Trazado_9" data-name="Trazado 9" d="M48.775,20.625l-3.891-.632A20.309,20.309,0,0,0,42.6,14.484l2.237-3.134a1.464,1.464,0,0,0-.156-1.887L40.537,5.32a1.459,1.459,0,0,0-1.887-.156L35.516,7.4a20.307,20.307,0,0,0-5.509-2.286l-.632-3.891A1.464,1.464,0,0,0,27.93,0H22.07a1.464,1.464,0,0,0-1.445,1.225l-.632,3.891A20.309,20.309,0,0,0,14.484,7.4L11.35,5.165a1.459,1.459,0,0,0-1.887.156L5.32,9.463a1.464,1.464,0,0,0-.156,1.887L7.4,14.484a20.307,20.307,0,0,0-2.286,5.509l-3.891.632A1.464,1.464,0,0,0,0,22.07V27.93a1.464,1.464,0,0,0,1.225,1.445l3.891.632A20.309,20.309,0,0,0,7.4,35.516L5.165,38.65a1.464,1.464,0,0,0,.156,1.887L9.463,44.68a1.469,1.469,0,0,0,1.887.156L14.484,42.6a20.307,20.307,0,0,0,5.509,2.286l.632,3.891A1.464,1.464,0,0,0,22.07,50H27.93a1.464,1.464,0,0,0,1.445-1.225l.632-3.891A20.309,20.309,0,0,0,35.516,42.6l3.134,2.237a1.47,1.47,0,0,0,1.887-.156l4.143-4.143a1.464,1.464,0,0,0,.156-1.887L42.6,35.516a20.307,20.307,0,0,0,2.286-5.509l3.891-.632A1.464,1.464,0,0,0,50,27.93V22.07A1.464,1.464,0,0,0,48.775,20.625ZM25,41.113A16.113,16.113,0,1,1,41.113,25,16.132,16.132,0,0,1,25,41.113Z" fill="#fff"/>
        </g>
      </g>
      <g id="Grupo_7" data-name="Grupo 7">
        <g id="Grupo_6" data-name="Grupo 6">
          <path id="Trazado_10" data-name="Trazado 10" d="M31.767,29.075a8.671,8.671,0,0,1-13.533,0,10.333,10.333,0,0,0-2.994,4.707,13.022,13.022,0,0,0,19.52,0A10.333,10.333,0,0,0,31.767,29.075Z" fill="#fff"/>
        </g>
      </g>
    </g>
  </g>
</svg>
