<svg xmlns="http://www.w3.org/2000/svg" xmlns:xlink="http://www.w3.org/1999/xlink" width="50" height="50" viewBox="0 0 50 50">
  <defs>
    <clipPath id="clip-path">
      <rect id="Rectángulo_7" data-name="Rectángulo 7" width="50" height="50" transform="translate(616 143)" fill="#fff" stroke="#707070" stroke-width="1"/>
    </clipPath>
  </defs>
  <g id="Enmascarar_grupo_7" data-name="Enmascarar grupo 7" transform="translate(-616 -143)" clip-path="url(#clip-path)">
    <g id="_007-envelope" data-name="007-envelope" transform="translate(616 143)">
      <g id="Grupo_8" data-name="Grupo 8">
        <path id="Trazado_14" data-name="Trazado 14" d="M4.8,17.467q.949.669,5.72,3.976t7.31,5.092q.279.2,1.186.851t1.507,1.061q.6.4,1.451.907a8.418,8.418,0,0,0,1.6.753,4.421,4.421,0,0,0,1.4.251h.056a4.425,4.425,0,0,0,1.4-.251,8.426,8.426,0,0,0,1.6-.753q.851-.5,1.451-.907t1.507-1.061q.907-.656,1.186-.851,2.567-1.785,13.058-9.068a13.255,13.255,0,0,0,3.4-3.432A7.368,7.368,0,0,0,50,9.822a4.5,4.5,0,0,0-4.464-4.464H4.464A3.985,3.985,0,0,0,1.158,6.808,5.632,5.632,0,0,0,0,10.435a6.517,6.517,0,0,0,1.535,3.809A13.849,13.849,0,0,0,4.8,17.467Z" fill="#fff"/>
        <path id="Trazado_15" data-name="Trazado 15" d="M47.209,20.452q-9.151,6.194-13.895,9.626-1.59,1.171-2.581,1.827A15.927,15.927,0,0,1,28.1,33.245a8.029,8.029,0,0,1-3.069.684h-.056a8.031,8.031,0,0,1-3.069-.684,15.935,15.935,0,0,1-2.637-1.339q-.99-.655-2.581-1.827-3.767-2.762-13.867-9.626A14.779,14.779,0,0,1,0,18.025V40.178a4.3,4.3,0,0,0,1.311,3.153,4.3,4.3,0,0,0,3.153,1.312H45.536A4.478,4.478,0,0,0,50,40.178V18.025A15.386,15.386,0,0,1,47.209,20.452Z" fill="#fff"/>
      </g>
    </g>
  </g>
</svg>
