<svg xmlns="http://www.w3.org/2000/svg" xmlns:xlink="http://www.w3.org/1999/xlink" width="50" height="50" viewBox="0 0 50 50">
  <defs>
    <clipPath id="clip-path">
      <rect id="Rectángulo_2" data-name="Rectángulo 2" width="50" height="50" transform="translate(211 143)" fill="#fff" stroke="#707070" stroke-width="1"/>
    </clipPath>
  </defs>
  <g id="Enmascarar_grupo_2" data-name="Enmascarar grupo 2" transform="translate(-211 -143)" clip-path="url(#clip-path)">
    <path id="_002-whatsapp" data-name="002-whatsapp" d="M25.417,0A24.582,24.582,0,0,0,4.08,36.791L.042,48.9a.833.833,0,0,0,1,1.069l13.222-3.479A24.583,24.583,0,1,0,25.417,0Zm15.34,35.746-1.465,1.466A8.564,8.564,0,0,1,33.158,40h0c-2.992,0-6.217-1.708-9.586-5.077l-8.495-8.494c-2.657-2.657-4.289-5.237-4.852-7.672a8.251,8.251,0,0,1,2.564-8.047l1.466-1.466A3.158,3.158,0,0,1,17.9,8.694c2.218,1.174,4.517,5.021,4.772,5.456a3.107,3.107,0,0,1,.4,2.353,2.175,2.175,0,0,1-.99,1.293,20.538,20.538,0,0,0-1.6,1.443,2.252,2.252,0,0,0,.341,3.3l6.635,6.635a2.245,2.245,0,0,0,3.312.332A21.228,21.228,0,0,0,32.2,27.913a2.189,2.189,0,0,1,1.948-1.077,3.452,3.452,0,0,1,1.689.483c.443.261,4.291,2.559,5.464,4.777A3.09,3.09,0,0,1,40.756,35.746Z" transform="translate(211 143)" fill="#fff"/>
  </g>
</svg>
